<?xml version="1.0"?><svg width="793.7007874015749" height="1122.5196850393702" xmlns="http://www.w3.org/2000/svg">
 <title>Speech bubble</title>

 <g>
  <title>Layer 1</title>
  <path style="vector-effect: non-scaling-stroke; " transform="translate(7.34437 74.4137) scale(1 0.52798) translate(-7.34437 -74.4137)" fill="none" fill-opacity="0.75" fill-rule="evenodd" stroke="#000000" stroke-width="7.5" id="path588" d="m7.344371,615.308167c0.000032,36.479492 19.661027,65.84729 44.083009,65.84729l93.483372,0c4.498581,92.45752 -7.92308,143.146729 -53.636482,211.020325c69.601707,-23.675293 104.991096,-100.968384 110.655128,-211.020325l538.696518,0c24.421997,0 44.083008,-29.367798 44.083008,-65.84729l0,-475.047089c0,-36.479668 -19.661011,-65.847427 -44.083008,-65.847427l-689.198536,0c-24.421946,0 -44.083009,29.36776 -44.083009,65.847427l0,475.047089z"/>
  <g id="g623">
   <path fill="none" fill-rule="evenodd" stroke="black" stroke-width="7.5" fill-opacity="0.75" id="path614" d="m1532.405762,249.30925c-23.032959,135.31929 178.506348,146.835831 190.022949,28.791336c37.428711,126.681915 210.176758,118.044495 233.209717,-43.187012c43.187012,86.374023 181.385498,20.153946 115.165527,-54.703537c69.099121,51.824417 221.693115,-37.428757 86.374023,-135.319321c89.253174,5.75827 164.110596,-282.155121 -63.341064,-187.143707c109.407227,-132.440186 -112.286133,-236.088989 -184.264648,-100.769714c8.637451,-71.978333 -77.736572,-60.461792 -86.374023,-11.516541c57.582764,-126.681885 -233.209717,-267.75946 -238.968018,5.758301c-60.461914,-138.198425 -236.088867,-57.582703 -166.989746,51.824402c-43.187012,-48.945251 -74.857422,14.395691 -48.945313,31.670471c-112.286377,-123.802734 -253.36377,126.681915 -97.890625,161.231537c-169.868896,25.912201 -51.824463,184.264572 34.549561,123.802734c-54.703613,40.307892 -5.758301,164.110657 115.165527,95.011444c-51.824463,71.978363 92.132324,123.802765 112.286133,34.549606z"/>
   <path fill="none" fill-rule="evenodd" stroke="black" stroke-width="5" fill-opacity="0.75" id="path619" d="m1376.812744,443.668396c-37.428711,-71.978363 -118.044678,71.978333 -8.637451,71.978333c109.406982,0 51.824463,-106.527954 8.637451,-71.978333z"/>
   <path fill="none" fill-opacity="0.75" fill-rule="evenodd" stroke="#000000" stroke-width="5" id="path620" d="m1166.270996,592.956299c57.538086,-10.422485 39.646484,-65.827942 -0.554199,-71.201233c-40.200439,-5.373352 -67.068848,14.256592 -52.914063,38.237732c14.155029,23.981201 28.962402,16.633484 37.862061,9.450989c-2.830322,5.681946 -6.760742,28.695862 15.606201,23.512512z"/>
   <path fill="none" fill-opacity="0.75" fill-rule="evenodd" stroke="#000000" stroke-width="5" id="path621" d="m1268.063965,548.16748c57.537842,-10.422485 39.646484,-65.827972 -0.554199,-71.201263c-40.200684,-5.373352 -67.069092,14.256592 -52.914063,38.237762c14.154785,23.98114 28.962158,16.633484 37.861816,9.450928c-2.830078,5.681946 -6.760742,28.695923 15.606445,23.512573z"/>
   <path fill="none" fill-opacity="0.75" fill-rule="evenodd" stroke="#000000" stroke-width="7.02858" id="path622" d="m1465.179688,422.371674c53.665771,106.348602 149.841553,-115.117126 6.632813,-108.946655c-143.20874,6.170441 -60.919434,163.442932 -6.632813,108.946655z"/>
  </g>
  <path fill="#ffff00" fill-rule="evenodd" stroke="#000000" stroke-width="7.5" id="path629" d="m1577.249146,1104.525513l40.766724,-91.398499l-166.989746,11.516541l123.802734,-86.374084l-172.747925,-66.220093l215.934937,-20.153931l-71.978271,-143.956665l129.561035,95.011414l48.945313,-126.681885l48.94519,95.011414l83.494873,-126.681885l63.340942,103.648804l100.769775,-71.978333l-2.879272,89.253113l106.527954,-92.132263l-48.945313,149.714966l149.715088,40.307861l-166.989746,48.945313l149.714844,106.527893l-178.506226,5.758362l46.06604,126.681885l-106.527832,-89.253174l-60.461914,106.527954l-60.461792,-83.494873l-77.736572,103.648804l-17.27478,-100.769775l-66.220093,69.099365l-11.516479,-95.011597l-98.349487,42.453369z"/>
 </g>
</svg>